HIERARCHY
ROOT simHips
{
  OFFSET -68.3785 100.059 260.003
  CHANNELS 6 Xposition Yposition Zposition Zrotation Xrotation Yrotation
  JOINT simSpine
  {
    OFFSET -0.000354287 21.3001 -0.0169239
    CHANNELS 3 Zrotation Xrotation Yrotation
    JOINT simLeftArm
    {
      OFFSET 13.5181 21.3012 0
      CHANNELS 3 Zrotation Xrotation Yrotation
      JOINT simLeftForeArm
      {
        OFFSET 24.5783 0 1.00687e-005
        CHANNELS 3 Zrotation Xrotation Yrotation
        JOINT simLeftHand
        {
          OFFSET 24.5783 0 0
          CHANNELS 3 Zrotation Xrotation Yrotation
          End Site
          {
            OFFSET 7.32568 1.52588e-005 0.0169305
          }
        }
      }
    }
    JOINT simHead
    {
      OFFSET 0 27.4458 -0.004888
      CHANNELS 3 Zrotation Xrotation Yrotation
      End Site
      {
        OFFSET 0 0 0
      }
    }
    JOINT simRightArm
    {
      OFFSET -13.5174 21.3012 0
      CHANNELS 3 Zrotation Xrotation Yrotation
      JOINT simRightForeArm
      {
        OFFSET -24.5783 -3.50495e-005 0
        CHANNELS 3 Zrotation Xrotation Yrotation
        JOINT simRightHand
        {
          OFFSET -24.5783 -1.48483e-005 0
          CHANNELS 3 Zrotation Xrotation Yrotation
          End Site
          {
            OFFSET -7.32568 1.52588e-005 0.0169305
          }
        }
      }
    }
  }
  JOINT simRightUpLeg
  {
    OFFSET -8.44614 -9.41038 0.835685
    CHANNELS 3 Zrotation Xrotation Yrotation
    JOINT simRightLeg
    {
      OFFSET 9.38052e-005 -40.9639 0.000210361
      CHANNELS 3 Zrotation Xrotation Yrotation
      JOINT simRightFoot
      {
        OFFSET 0 -40.9639 0
        CHANNELS 3 Zrotation Xrotation Yrotation
        End Site
        {
          OFFSET 0.50614 -9.67405 14.6709
        }
      }
    }
  }
  JOINT simLeftUpLeg
  {
    OFFSET 8.44614 -9.41038 0.835688
    CHANNELS 3 Zrotation Xrotation Yrotation
    JOINT simLeftLeg
    {
      OFFSET 0 -40.9639 0
      CHANNELS 3 Zrotation Xrotation Yrotation
      JOINT simLeftFoot
      {
        OFFSET 0 -40.9639 0
        CHANNELS 3 Zrotation Xrotation Yrotation
        End Site
        {
          OFFSET -0.50614 -9.67405 14.6709
        }
      }
    }
  }
}
MOTION
Frames:	16
Frame Time:	0.0333333
7.52722 99.353 -86.0404 -0.403951 -0.718901 -9.79902 0.505112 2.72264 -1.07166 -90.5424 56.5645 12.5684 -66.8507 -27.6002 -98.6981 3.1937 0.415848 9.19564 -2.7916 -2.70333 17.9934 111.664 66.3306 -37.5912 -53.7897 -47.2564 76.2571 23.694 -13.2646 -1.05117 -7.15457 -1.26046 -12.5934 -1.81157 7.93136 -14.0834 7.04187 -4.44109 -0.0532304 9.07663 -5.13374 14.4777 0.447985 4.05091 1.02363 -6.54003 4.17285 0.438099 
7.45811 99.3539 -86.0018 -0.346367 -0.667723 -9.76321 0.467926 2.65158 -1.10474 -90.5638 56.5605 12.6933 -66.6633 -27.6658 -98.6365 3.06527 0.373482 9.27256 -2.7346 -2.62169 18.0835 111.729 66.3607 -37.6441 -53.7891 -47.2416 76.2136 23.6839 -13.2518 -1.03238 -7.0198 -1.28769 -12.5554 -2.09924 7.87311 -14.1325 7.16556 -4.41829 -0.0595197 9.04886 -5.19023 14.4375 0.470079 4.07817 1.03453 -6.52219 4.11749 0.438068 
7.38425 99.3545 -85.9517 -0.284931 -0.63391 -9.7228 0.424019 2.59354 -1.14194 -90.5465 56.5551 12.7802 -66.8066 -27.6768 -98.6428 3.10739 0.402071 9.25828 -2.66072 -2.54982 18.1385 111.715 66.3453 -37.594 -53.725 -47.2137 76.2369 23.6902 -13.2657 -1.0429 -6.89967 -1.28232 -12.4156 -2.34241 7.81653 -14.3442 7.26966 -4.40134 -0.065052 9.02294 -5.24291 14.3435 0.497841 4.15158 1.08766 -6.59514 4.03391 0.438023 
7.32222 99.3552 -85.8894 -0.253736 -0.588836 -9.6774 0.409554 2.52304 -1.17379 -90.5719 56.5777 12.8546 -66.7492 -27.7274 -98.5924 3.0754 0.395849 9.29051 -2.59075 -2.44624 18.1361 111.587 66.2811 -37.4469 -53.6139 -47.1383 76.2857 23.7148 -13.2723 -1.01279 -6.80645 -1.28173 -12.3684 -2.50782 7.79016 -14.4651 7.3533 -4.38787 -0.0686475 9.01665 -5.23069 14.2932 0.521905 4.09117 1.10049 -6.71916 4.02494 0.438018 
7.26278 99.3562 -85.8283 -0.213257 -0.524648 -9.64778 0.39344 2.42732 -1.1735 -90.5518 56.6127 12.8917 -66.891 -27.7322 -98.6137 3.12675 0.4196 9.30179 -2.54389 -2.45756 18.1246 111.558 66.3695 -37.4239 -53.5361 -47.1701 76.3065 23.664 -13.2635 -1.05281 -6.74231 -1.32598 -12.2396 -2.62769 7.8055 -14.6432 7.41322 -4.388 -0.0717143 9.00437 -5.27851 14.285 0.534527 4.11703 1.11283 -6.67435 3.92393 0.437964 
7.20414 99.3564 -85.7677 -0.194004 -0.511532 -9.62528 0.371879 2.38074 -1.19874 -90.5432 56.5276 12.901 -66.8617 -27.7503 -98.5526 3.11503 0.420403 9.29655 -2.47952 -2.40837 18.1319 111.343 66.4473 -37.2508 -53.3272 -47.1444 76.4534 23.639 -13.2595 -1.05952 -6.68645 -1.30995 -12.217 -2.70264 7.82674 -14.7242 7.37452 -4.44498 -0.0741093 9.01698 -5.27575 14.2591 0.532019 4.16153 1.11488 -6.64446 3.84847 0.437925 
7.15506 99.3562 -85.7059 -0.189428 -0.524686 -9.58669 0.377782 2.36033 -1.21149 -90.5415 56.5795 12.9124 -66.879 -27.7503 -98.6147 3.13113 0.430593 9.31074 -2.47559 -2.37177 18.1711 111.182 66.5398 -37.1604 -53.2269 -47.1627 76.5225 23.6013 -13.2768 -1.11804 -6.62863 -1.2481 -12.1809 -2.77798 7.82993 -14.7871 7.42972 -4.49301 -0.0761233 9.02189 -5.25658 14.1447 0.561649 4.22522 1.18344 -6.70156 3.74634 0.437873 
7.10191 99.357 -85.6442 -0.168817 -0.472727 -9.56448 0.360959 2.28538 -1.23614 -90.4461 56.558 12.8279 -66.8151 -27.8006 -98.5777 3.06731 0.407832 9.31345 -2.41351 -2.40204 18.193 111.024 66.6134 -37.0351 -53.1733 -47.1653 76.5792 23.6116 -13.2811 -1.12649 -6.58798 -1.2349 -12.153 -2.83399 7.78815 -14.838 7.52623 -4.50796 -0.0775033 9.02333 -5.24986 14.1216 0.566655 4.17461 1.22224 -6.72737 3.7351 0.437868 
7.05296 99.3576 -85.5819 -0.143509 -0.427504 -9.52357 0.342129 2.21702 -1.23339 -90.3227 56.5961 12.6849 -66.6923 -27.8587 -98.5346 3.03577 0.399485 9.35413 -2.3785 -2.4114 18.1292 110.919 66.6629 -36.9768 -53.1759 -47.1762 76.5412 23.6082 -13.2629 -1.09155 -6.55785 -1.21394 -12.2069 -2.86383 7.73064 -14.8641 7.45997 -4.49375 -0.0784722 9.00885 -5.23673 14.0684 0.579476 4.11176 1.24649 -6.70411 3.7184 0.437859 
6.99565 99.3583 -85.5225 -0.136023 -0.380316 -9.48536 0.323631 2.14082 -1.24323 -90.1828 56.5861 12.535 -66.7268 -27.888 -98.5325 3.06619 0.416194 9.3713 -2.36456 -2.39689 18.1085 110.738 66.6438 -36.7945 -53.0485 -47.1189 76.5994 23.5827 -13.2532 -1.09291 -6.50076 -1.18687 -12.1623 -2.90584 7.67655 -14.9694 7.54126 -4.50228 -0.0794249 9.06197 -5.29395 14.1343 0.57481 4.19949 1.17004 -6.80655 3.64364 0.437823 
6.94444 99.3586 -85.4662 -0.132136 -0.358367 -9.46525 0.309556 2.09239 -1.26537 -90.0609 56.5703 12.4197 -66.6887 -27.9031 -98.511 3.00325 0.390977 9.36265 -2.38784 -2.41215 18.1237 110.652 66.705 -36.7468 -53.0163 -47.104 76.6089 23.5711 -13.2446 -1.08198 -6.45684 -1.1653 -12.0862 -2.91629 7.67538 -15.0903 7.47376 -4.5267 -0.0803611 9.08431 -5.27898 14.0788 0.56999 4.19996 1.20406 -6.7674 3.59358 0.437798 
6.90506 99.3587 -85.4137 -0.133828 -0.343468 -9.42895 0.316895 2.05996 -1.25848 -89.9907 56.6346 12.3298 -66.6467 -27.9105 -98.5372 3.0122 0.394189 9.41437 -2.42109 -2.43643 18.1206 110.558 66.7268 -36.7015 -53.0896 -47.1307 76.5401 23.6486 -13.2625 -1.04158 -6.42058 -1.1269 -12.0631 -2.93141 7.6588 -15.1737 7.48585 -4.55527 -0.0812796 9.08553 -5.2295 13.9491 0.587225 4.128 1.29758 -6.81199 3.59019 0.437797 
6.86906 99.3593 -85.3737 -0.14091 -0.301193 -9.38814 0.310963 2.02924 -1.30563 -89.9348 56.6208 12.259 -66.6948 -27.8889 -98.5942 3.1106 0.438973 9.41338 -2.43738 -2.46619 18.1767 110.403 66.7617 -36.5872 -52.9809 -47.1312 76.6351 23.5902 -13.245 -1.06794 -6.36387 -1.12224 -12.0249 -2.9614 7.6353 -15.2558 7.49372 -4.56647 -0.082178 9.12017 -5.27434 13.9252 0.593391 4.17337 1.29237 -6.83632 3.52696 0.437621 
6.83046 99.3598 -85.3401 -0.145326 -0.28207 -9.34914 0.289109 2.01683 -1.31015 -89.851 56.7186 12.2225 -66.5658 -27.8862 -98.618 3.06935 0.41982 9.43656 -2.31239 -2.43747 18.1984 110.263 66.7583 -36.4838 -52.8616 -47.1294 76.6973 23.6222 -13.2466 -1.03372 -6.3236 -1.10916 -12.0394 -2.98318 7.64001 -15.2961 7.50232 -4.6008 -0.0830613 9.15674 -5.30884 13.9476 0.582197 4.23859 1.2344 -6.78289 3.47912 0.437095 
6.79701 99.3605 -85.3039 -0.13368 -0.254276 -9.33014 0.260691 1.9875 -1.2935 -89.7731 56.8056 12.2087 -66.6327 -27.8788 -98.6763 3.08243 0.43136 9.43051 -2.26407 -2.44514 18.1155 110.172 66.7487 -36.4154 -52.8501 -47.0933 76.6856 23.6531 -13.2518 -1.01411 -6.30692 -1.10641 -12.0116 -2.98794 7.63495 -15.3454 7.50986 -4.62725 -0.0839258 9.16037 -5.30821 13.9801 0.593316 4.21721 1.18465 -6.82009 3.46889 0.436466 
6.77054 99.3611 -85.2742 -0.143252 -0.228952 -9.34403 0.257126 1.97396 -1.26462 -89.7121 56.8806 12.2173 -66.7088 -27.8357 -98.7401 3.03911 0.411936 9.44135 -2.2521 -2.31246 18.1092 110.162 66.7782 -36.4274 -52.8645 -47.0714 76.6667 23.5978 -13.241 -1.03727 -6.26664 -1.09859 -12.0502 -3.00846 7.60185 -15.2958 7.51071 -4.63449 -0.0847705 9.18735 -5.28699 14.0071 0.600901 4.18101 1.18202 -6.90774 3.43831 0.435731 
